<svg width="30" height="30" viewBox="0 0 30 30" fill="none" xmlns="http://www.w3.org/2000/svg">
<circle cx="14.9236" cy="15.0422" r="13.7517" fill="#2EB9D5" stroke="white" stroke-width="1.5"/>
<path d="M13.0798 8.74219C12.2486 8.92031 11.5986 9.40781 11.2205 10.1391C10.9892 10.5828 10.9392 10.8141 10.9392 11.4016C10.9423 11.8859 10.9455 11.9109 11.0455 12.2047C11.3548 13.1109 12.0611 13.7641 12.9611 13.9797C13.3142 14.0641 13.8736 14.0641 14.2267 13.9797C15.433 13.6922 16.2673 12.6266 16.2673 11.3828C16.2673 10.1547 15.5048 9.14219 14.3142 8.78906C14.0298 8.70469 13.3736 8.67969 13.0798 8.74219Z" fill="white"/>
<path d="M11.6955 15.392C10.8267 15.4795 10.0986 15.8264 9.54546 16.4107C9.11733 16.8639 8.84546 17.3889 8.67983 18.0826C8.60796 18.3951 8.59858 18.4951 8.59546 19.0264C8.59546 19.7076 8.62983 19.8857 8.83608 20.3201C9.06421 20.8014 9.49233 21.1326 10.0955 21.2982C10.3392 21.367 10.3923 21.367 12.3767 21.3795C13.4923 21.3826 14.4361 21.3826 14.4736 21.3732C14.5111 21.3639 14.5548 21.3295 14.5673 21.3014C14.583 21.2701 14.6017 20.9139 14.6111 20.5107C14.6267 19.7826 14.6267 19.7764 14.7142 19.6107C14.7798 19.4889 15.1611 19.0826 16.2205 18.0139C17.4173 16.8076 17.6423 16.567 17.6423 16.492C17.6423 16.3889 17.458 16.2045 17.1267 15.9795C16.8361 15.7826 16.5736 15.6545 16.2361 15.542C15.7236 15.3701 15.5205 15.3545 13.658 15.3576C12.7298 15.3607 11.8486 15.3764 11.6955 15.392Z" fill="white"/>
<path d="M19.9236 15.7389C19.8517 15.7607 19.683 15.9014 19.4236 16.1576L19.033 16.5389L19.8767 17.3857C20.3392 17.8482 20.733 18.2295 20.7517 18.2295C20.8017 18.2295 21.4736 17.5389 21.5267 17.4326C21.6048 17.2764 21.6205 17.117 21.5798 16.942C21.5423 16.7889 21.5048 16.7389 21.0673 16.2951C20.7798 16.0014 20.5455 15.792 20.4705 15.7576C20.333 15.692 20.0955 15.6857 19.9236 15.7389Z" fill="white"/>
<path d="M17.0861 18.5201L15.5798 20.0264V20.8795V21.7295H16.4236H17.2673L18.7892 20.217L20.3142 18.7014L19.4705 17.8576C19.008 17.392 18.6205 17.0107 18.6111 17.0107C18.6017 17.0107 17.9173 17.6889 17.0861 18.5201Z" fill="white"/>
</svg>
